#!OML:ASF X:\für Bonn\!DataBase\2005_08_11_Bastian_Final\c3d\Bastian.ASF
:FULLY-SPECIFIED
:DEGREES
429
root -0.246767 1.48129 25.7124 -982.303 -3.33308 -898.642
lowerback 55.1471 5.15598 8.75337
upperback 24.3279 -4.44498 1.65212
thorax 6.67189 -8.74307 -1.54895
lowerneck -11.4989 -4.85608 -5.31712
upperneck 14.2303 -6.69702 4.98432
head 6.56978 -3.21332 1.83524
rclavicle 3.72721e-015 -1.39149e-014
rhumerus -55.9546 36.3173 -83.2927
rradius 64.3663
rwrist 12.2257
rhand -31.6574 0.371038
rfingers 7.12502
rthumb -4.91792 -29.5519
lclavicle 3.72721e-015 -1.39149e-014
lhumerus -230.454 -172.253 253.415
lradius 68.1979
lwrist 24.149
lhand -34.3194 -21.6095
lfingers 7.12502
lthumb -7.48787 8.23802
rfemur -36.3748 1.71047 23.0037
rtibia 59.1508
rfoot 15.5089 -0.983463
rtoes -14.6616
lfemur -58.1408 11.5669 -22.1481
ltibia 106.993
lfoot 15.8518 6.73596
ltoes 18.9434
430
root -0.242915 1.4773 25.7263 -982.597 -3.32333 -898.725
lowerback 54.7957 5.13999 8.6921
upperback 24.4061 -4.45624 1.63295
thorax 6.78187 -8.72965 -1.56733
lowerneck -11.2594 -4.75763 -5.3651
upperneck 14.5657 -6.59759 4.9062
head 6.62876 -3.1874 1.83011
rclavicle 2.32578e-014 -1.59028e-014
rhumerus -53.9342 36.6579 -82.2814
rradius 62.7449
rwrist 12.2972
rhand -32.5917 1.15721
rfingers 7.12502
rthumb -5.81998 -28.7429
lclavicle 2.32578e-014 -1.59028e-014
lhumerus -229.311 -171.801 253.32
lradius 66.9814
lwrist 23.397
lhand -34.1157 -21.5895
lfingers 7.12502
lthumb -7.29125 8.26485
rfemur -35.8414 1.6659 23.0554
rtibia 58.7418
rfoot 15.5097 -1.26077
rtoes -14.2767
lfemur -57.6352 11.4729 -22.0708
ltibia 106.458
lfoot 15.8771 6.22746
ltoes 17.8668
431
root -0.237732 1.47329 25.7415 -982.905 -3.31853 -898.818
lowerback 54.4635 5.10098 8.64405
upperback 24.471 -4.48255 1.58855
thorax 6.87393 -8.71733 -1.6104
lowerneck -11.0155 -4.65586 -5.45374
upperneck 14.9241 -6.49196 4.83437
head 6.69559 -3.16182 1.83399
rclavicle -5.8393e-015 9.93923e-015
rhumerus -52.0047 36.9223 -81.3613
rradius 61.2045
rwrist 12.5617
rhand -33.4998 1.6911
rfingers 7.12502
rthumb -6.69671 -28.183
lclavicle -5.8393e-015 9.93923e-015
lhumerus -228.165 -171.484 253.181
lradius 65.6284
lwrist 22.3997
lhand -33.8827 -21.5108
lfingers 7.12502
lthumb -7.06636 8.35129
rfemur -35.2881 1.65089 23.0983
rtibia 58.3297
rfoot 15.534 -1.45136
rtoes -14.3798
lfemur -57.0804 11.3865 -21.9825
ltibia 105.86
lfoot 15.8777 5.74761
ltoes 16.934
432
root -0.233497 1.46885 25.7541 -983.211 -3.31311 -898.901
lowerback 54.1332 5.07474 8.56891
upperback 24.5349 -4.5096 1.56379
thorax 6.96651 -8.71297 -1.62001
lowerneck -10.7971 -4.53768 -5.52269
upperneck 15.2749 -6.36558 4.75829
head 6.76257 -3.12592 1.8348
rclavicle -9.77772e-015 3.02153e-014
rhumerus -50.0727 37.1726 -80.4807
rradius 59.6096
rwrist 12.829
rhand -34.4236 2.26861
rfingers 7.12502
rthumb -7.58846 -27.5753
lclavicle -9.77772e-015 3.02153e-014
lhumerus -227.024 -171.157 253.072
lradius 64.2033
lwrist 21.4122
lhand -33.7263 -21.3148
lfingers 7.12502
lthumb -6.91536 8.55227
rfemur -34.7419 1.61265 23.145
rtibia 57.9152
rfoot 15.5986 -1.61379
rtoes -14.8587
lfemur -56.5179 11.2712 -21.9022
ltibia 105.211
lfoot 15.8618 5.30123
ltoes 16.069
433
root -0.229869 1.46422 25.767 -983.506 -3.30603 -898.984
lowerback 53.8231 5.03472 8.50435
upperback 24.5735 -4.53341 1.53751
thorax 7.02876 -8.70047 -1.63072
lowerneck -10.5572 -4.43619 -5.59827
upperneck 15.6266 -6.26184 4.66542
head 6.82698 -3.10453 1.82937
rclavicle 2.17421e-015 -1.55052e-014
rhumerus -48.2731 37.4737 -79.7283
rradius 58.046
rwrist 12.9492
rhand -35.4232 2.74656
rfingers 7.12502
rthumb -8.55319 -27.0602
lclavicle 2.17421e-015 -1.55052e-014
lhumerus -225.911 -170.853 252.983
lradius 62.741
lwrist 20.3958
lhand -33.4811 -21.0422
lfingers 7.12502
lthumb -6.67865 8.83243
rfemur -34.1968 1.58929 23.1773
rtibia 57.4921
rfoot 15.6719 -1.73857
rtoes -15.3757
lfemur -55.9416 11.1378 -21.826
ltibia 104.502
lfoot 15.8204 4.87966
ltoes 15.1307
